Coordinates
version=1
nRows=17
nColumns=38
inDegrees=no

Units are S.I. units (second, meters, Newtons, ...)
If the header above contains a line with 'inDegrees', this indicates whether rotational values are in degrees (yes) or radians (no).

endheader
time	pelvis_tilt	pelvis_list	pelvis_rotation	pelvis_tx	pelvis_ty	pelvis_tz	hip_flexion_r	hip_adduction_r	hip_rotation_r	knee_angle_r	ankle_angle_r	subtalar_angle_r	mtp_angle_r	hip_flexion_l	hip_adduction_l	hip_rotation_l	knee_angle_l	ankle_angle_l	subtalar_angle_l	mtp_angle_l	lumbar_extension	lumbar_bending	lumbar_rotation	arm_flex_r	arm_add_r	arm_rot_r	elbow_flex_r	pro_sup_r	wrist_flex_r	wrist_dev_r	arm_flex_l	arm_add_l	arm_rot_l	elbow_flex_l	pro_sup_l	wrist_flex_l	wrist_dev_l
0.73	0.288089	1.48981	-1.8213	0.916112	1.17731	0.934832	-0.219446	0.0275576	-0.262448	0.0696962	0.212709	0	0	0.364397	-0.0925046	-0.338659	0.371142	0.186904	0	0	-0.230199	-0.0120508	-0.07887	-0.212372	-0.223865	0.0627067	0.71228	0.422385	0	0	-0.174794	-0.290137	0.180023	0.695401	1.38954	0	0
0.74	0.314537	1.49083	-1.84474	0.917272	1.16836	0.933134	-0.228608	0.0254115	-0.268934	0.0713649	0.222057	0	0	0.360504	-0.0761427	-0.325899	0.303243	0.180727	0	0	-0.230787	-0.014885	-0.0825365	-0.209509	-0.223085	0.0627414	0.711337	0.420688	0	0	-0.172296	-0.289469	0.185354	0.693877	1.3922	0	0
0.75	0.338973	1.49114	-1.86677	0.918459	1.15928	0.931402	-0.236912	0.0224664	-0.275707	0.0764166	0.232937	0	0	0.352963	-0.0592758	-0.303448	0.233112	0.170294	0	0	-0.231967	-0.0178743	-0.0854407	-0.207067	-0.22268	0.0637258	0.710929	0.419892	0	0	-0.169384	-0.288624	0.190173	0.69197	1.39729	0	0
0.76	0.359411	1.49151	-1.88596	0.919517	1.14996	0.929569	-0.243634	0.0191166	-0.283545	0.0849324	0.245482	0	0	0.342848	-0.0441606	-0.27354	0.163167	0.155101	0	0	-0.232619	-0.0209847	-0.0868806	-0.205397	-0.222326	0.0651246	0.710477	0.419679	0	0	-0.166495	-0.287889	0.195775	0.69009	1.40104	0	0
0.77	0.369986	1.49163	-1.89595	0.920499	1.1404	0.927658	-0.249734	0.0160799	-0.292187	0.0961991	0.258953	0	0	0.330749	-0.0317556	-0.238052	0.0964847	0.135491	0	0	-0.233295	-0.0237483	-0.0873046	-0.204581	-0.222241	0.0668125	0.710024	0.419158	0	0	-0.163768	-0.287356	0.201465	0.688502	1.40416	0	0
0.78	0.370562	1.49105	-1.89735	0.921275	1.13052	0.925732	-0.255851	0.013131	-0.30092	0.110481	0.273303	0	0	0.318007	-0.0230412	-0.20307	0.0386762	0.115135	0	0	-0.234284	-0.0265485	-0.0861657	-0.204596	-0.222006	0.0679061	0.709849	0.416419	0	0	-0.16158	-0.287249	0.207022	0.687454	1.40648	0	0
0.79	0.369096	1.49054	-1.89691	0.922064	1.12054	0.923743	-0.260032	0.00942818	-0.312386	0.129079	0.289264	0	0	0.310692	-0.0176256	-0.176142	0.000541567	0.102303	0	0	-0.235164	-0.0292957	-0.0846646	-0.204864	-0.221544	0.0683382	0.709666	0.414081	0	0	-0.159412	-0.287284	0.212614	0.686689	1.40666	0	0
0.8	0.363333	1.48953	-1.89255	0.92274	1.11039	0.921843	-0.266703	0.00690769	-0.316909	0.143132	0.300634	0	0	0.311999	-0.0153714	-0.167986	0	0.103417	0	0	-0.236519	-0.0322437	-0.0824149	-0.205349	-0.219945	0.0661828	0.708167	0.42154	0	0	-0.157135	-0.288619	0.222772	0.686922	1.38809	0	0
0.81	0.362708	1.48742	-1.89399	0.923389	1.10008	0.920088	-0.275024	0.00379024	-0.317473	0.155476	0.309712	0	0	0.313985	-0.0131616	-0.162274	0	0.10593	0	0	-0.238775	-0.0362976	-0.0797899	-0.205997	-0.219062	0.0675699	0.707333	0.41639	0	0	-0.155127	-0.28808	0.222952	0.685784	1.3977	0	0
0.82	0.373556	1.48444	-1.90834	0.923915	1.08952	0.918439	-0.282989	-0.00133006	-0.318701	0.170437	0.319563	0	0	0.316607	-0.0107385	-0.159708	0.000937885	0.1088	0	0	-0.241229	-0.0421214	-0.0757177	-0.207133	-0.217746	0.0686024	0.706092	0.411083	0	0	-0.153377	-0.28803	0.223333	0.684975	1.40622	0	0
0.83	0.388351	1.48161	-1.92659	0.92446	1.07889	0.916847	-0.289954	-0.00714714	-0.320353	0.186972	0.328832	0	0	0.324728	-0.00916688	-0.166713	0.0281304	0.116364	0	0	-0.243318	-0.0484576	-0.0717967	-0.208215	-0.216378	0.0706971	0.703822	0.40653	0	0	-0.15188	-0.288226	0.22304	0.684473	1.41499	0	0
0.84	0.401146	1.48027	-1.9425	0.925057	1.06816	0.915146	-0.294348	-0.0128422	-0.323333	0.206285	0.337913	0	0	0.34184	-0.0104289	-0.187155	0.0776474	0.133556	0	0	-0.24372	-0.0541613	-0.0680137	-0.20962	-0.215049	0.0729474	0.700844	0.402696	0	0	-0.15093	-0.288425	0.221802	0.684529	1.42351	0	0
0.85	0.407243	1.47994	-1.95297	0.925565	1.05703	0.913413	-0.298712	-0.0175583	-0.322755	0.224164	0.343965	0	0	0.359444	-0.0143077	-0.208822	0.133189	0.151314	0	0	-0.242369	-0.0590976	-0.062655	-0.211929	-0.213851	0.0748512	0.697353	0.399534	0	0	-0.151077	-0.288363	0.220099	0.684939	1.42931	0	0
0.86	0.404238	1.47966	-1.95546	0.926101	1.04562	0.911765	-0.303254	-0.0220854	-0.320909	0.24297	0.348815	0	0	0.374628	-0.0198847	-0.227965	0.189764	0.168178	0	0	-0.240677	-0.063118	-0.0559513	-0.215055	-0.213324	0.077261	0.694453	0.396599	0	0	-0.152023	-0.287941	0.218098	0.686079	1.43274	0	0
0.87	0.396294	1.47845	-1.95314	0.926805	1.03389	0.910353	-0.309026	-0.0270474	-0.319175	0.262038	0.351759	0	0	0.38383	-0.0244287	-0.239917	0.23906	0.182689	0	0	-0.239431	-0.0669048	-0.0489158	-0.218515	-0.213142	0.0801059	0.690906	0.394247	0	0	-0.15354	-0.287263	0.215975	0.687671	1.43357	0	0
0.88	0.391346	1.47726	-1.95301	0.927771	1.02195	0.909123	-0.314473	-0.0327074	-0.318184	0.28173	0.351996	0	0	0.388367	-0.0266844	-0.246568	0.278305	0.194641	0	0	-0.23753	-0.0706221	-0.0426229	-0.221951	-0.212797	0.0824785	0.686518	0.392396	0	0	-0.155445	-0.286353	0.213834	0.689034	1.43288	0	0
0.89	0.395932	1.47683	-1.96289	0.928882	1.00982	0.908039	-0.317739	-0.0398944	-0.316493	0.303535	0.350196	0	0	0.389667	-0.0271083	-0.252466	0.306706	0.200019	0	0	-0.233915	-0.0748174	-0.0360104	-0.225338	-0.211979	0.0832785	0.680685	0.393347	0	0	-0.157835	-0.286003	0.21567	0.69061	1.41704	0	0
